<svg width="1200" height="630" viewBox="0 0 1200 630" fill="none" xmlns="http://www.w3.org/2000/svg">
  <rect width="1200" height="630" fill="#101722"/>
  <rect x="48" y="48" width="1104" height="534" rx="38" fill="url(#panel)"/>
  <path d="M84 132H1116" stroke="#FFFFFF" stroke-opacity="0.06" stroke-width="1"/>
  <path d="M84 498H1116" stroke="#FFFFFF" stroke-opacity="0.06" stroke-width="1"/>
  <path d="M84 132V498" stroke="#FFFFFF" stroke-opacity="0.06" stroke-width="1"/>
  <path d="M1116 132V498" stroke="#FFFFFF" stroke-opacity="0.06" stroke-width="1"/>
  <rect x="92" y="92" width="526" height="282" rx="28" fill="#F7F8F6"/>
  <g transform="translate(46 40) scale(0.64)">
    <circle cx="182" cy="96" r="74" stroke="#D3D8DD" stroke-width="8"/>
    <circle cx="182" cy="96" r="52" stroke="#D3D8DD" stroke-width="8"/>
    <rect x="176" y="2" width="12" height="30" rx="3" fill="#D3D8DD"/>
    <rect x="176" y="160" width="12" height="30" rx="3" fill="#D3D8DD"/>
    <rect x="88" y="90" width="30" height="12" rx="3" fill="#D3D8DD"/>
    <rect x="246" y="90" width="30" height="12" rx="3" fill="#D3D8DD"/>
    <rect x="111" y="30" width="18" height="24" rx="3" transform="rotate(-45 111 30)" fill="#D3D8DD"/>
    <rect x="235" y="43" width="18" height="24" rx="3" transform="rotate(45 235 43)" fill="#D3D8DD"/>
    <rect x="111" y="162" width="18" height="24" rx="3" transform="rotate(45 111 162)" fill="#D3D8DD"/>
    <rect x="235" y="149" width="18" height="24" rx="3" transform="rotate(-45 235 149)" fill="#D3D8DD"/>
    <path d="M32 52H140V78H70V92H128V117H70V152H144V178H32V52Z" fill="#17192B"/>
    <path d="M117 26H156C235 26 286 61 286 110C286 160 235 194 156 194H117V164H154C213 164 252 143 252 110C252 78 213 56 154 56H117V26Z" fill="#17192B"/>
    <rect x="288" y="72" width="278" height="68" fill="#E2E6EA"/>
    <rect x="312" y="46" width="6" height="132" rx="3" fill="#C63139"/>
    <text x="334" y="126" fill="#C63139" font-family="Arial Narrow, Aptos Narrow, Bahnschrift Condensed, Segoe UI, Arial, sans-serif" font-size="86" font-weight="300">Industrial</text>
    <text x="319" y="206" fill="#5C6571" font-family="Segoe UI, Aptos, Helvetica Neue, Arial, sans-serif" font-size="34" font-weight="500" letter-spacing="2.5">PROBAT GROUP</text>
  </g>
  <text x="680" y="218" fill="#F7F8F6" font-family="Segoe UI, Aptos, Helvetica Neue, Arial, sans-serif" font-size="64" font-weight="700">Plant maintenance,</text>
  <text x="680" y="294" fill="#F7F8F6" font-family="Segoe UI, Aptos, Helvetica Neue, Arial, sans-serif" font-size="64" font-weight="700">fabrication, and</text>
  <text x="680" y="370" fill="#F7F8F6" font-family="Segoe UI, Aptos, Helvetica Neue, Arial, sans-serif" font-size="64" font-weight="700">millwrighting.</text>
  <rect x="680" y="422" width="182" height="6" rx="3" fill="#C63139"/>
  <text x="680" y="474" fill="#B8C0C9" font-family="Segoe UI, Aptos, Helvetica Neue, Arial, sans-serif" font-size="30">Milton, Ontario</text>
  <text x="680" y="516" fill="#B8C0C9" font-family="Segoe UI, Aptos, Helvetica Neue, Arial, sans-serif" font-size="30">Serving the Greater Toronto Area</text>
  <defs>
    <linearGradient id="panel" x1="48" y1="48" x2="1152" y2="582" gradientUnits="userSpaceOnUse">
      <stop stop-color="#1A2432"/>
      <stop offset="1" stop-color="#0F141D"/>
    </linearGradient>
  </defs>
</svg>
